<svg xmlns="http://www.w3.org/2000/svg" viewBox="0 0 800 500" preserveAspectRatio="xMidYMid slice"><defs><linearGradient id="g" x1="0" y1="0" x2="0" y2="1"><stop offset="0" stop-color="#1e3a8a"/><stop offset="0.6" stop-color="#4f46e5"/><stop offset="1" stop-color="#c4b5fd"/></linearGradient></defs><rect width="800" height="500" fill="url(#g)"/><circle cx="593" cy="183" r="5.7" fill="#e0e7ff" opacity="0.75"/><circle cx="299" cy="6" r="3.6" fill="#fef9c3" opacity="0.61"/><circle cx="461" cy="148" r="4.4" fill="#fef9c3" opacity="0.62"/><circle cx="553" cy="212" r="9.2" fill="#e0e7ff" opacity="0.98"/><circle cx="589" cy="121" r="7.3" fill="#fef9c3" opacity="0.74"/><circle cx="378" cy="115" r="6.6" fill="#e0e7ff" opacity="0.86"/><circle cx="402" cy="159" r="5.4" fill="#e0e7ff" opacity="0.61"/><circle cx="32" cy="146" r="9.9" fill="#fef9c3" opacity="0.60"/><circle cx="172" cy="8" r="6.1" fill="#e0e7ff" opacity="0.85"/><circle cx="328" cy="186" r="3.3" fill="#e0e7ff" opacity="0.95"/><circle cx="353" cy="74" r="4.4" fill="#e0e7ff" opacity="0.64"/><circle cx="232" cy="145" r="3.6" fill="#e0e7ff" opacity="0.97"/><circle cx="16" cy="199" r="4.7" fill="#e0e7ff" opacity="0.61"/><circle cx="715" cy="137" r="4.8" fill="#e0e7ff" opacity="0.74"/><circle cx="413" cy="91" r="9.7" fill="#e0e7ff" opacity="0.98"/><circle cx="701" cy="11" r="4.9" fill="#e0e7ff" opacity="0.82"/><circle cx="100" cy="128" r="4.7" fill="#fef9c3" opacity="0.84"/><circle cx="672" cy="77" r="3.8" fill="#fef9c3" opacity="0.70"/><circle cx="39" cy="201" r="8.1" fill="#e0e7ff" opacity="0.93"/><circle cx="55" cy="134" r="9.1" fill="#fef9c3" opacity="0.78"/><circle cx="290" cy="170" r="7.6" fill="#e0e7ff" opacity="0.62"/><circle cx="106" cy="189" r="8.9" fill="#e0e7ff" opacity="0.65"/><circle cx="400" cy="98" r="8.2" fill="#e0e7ff" opacity="0.71"/><circle cx="67" cy="21" r="6.0" fill="#e0e7ff" opacity="0.86"/><circle cx="656" cy="200" r="9.0" fill="#e0e7ff" opacity="0.73"/><circle cx="546" cy="165" r="8.1" fill="#e0e7ff" opacity="0.86"/><circle cx="562" cy="129" r="4.2" fill="#e0e7ff" opacity="0.89"/><circle cx="165" cy="82" r="4.0" fill="#e0e7ff" opacity="0.69"/><circle cx="290" cy="191" r="7.9" fill="#e0e7ff" opacity="0.64"/><circle cx="537" cy="178" r="3.0" fill="#e0e7ff" opacity="0.76"/><circle cx="145" cy="4" r="4.6" fill="#fef9c3" opacity="0.99"/><circle cx="476" cy="138" r="3.2" fill="#fef9c3" opacity="0.68"/><circle cx="765" cy="21" r="4.6" fill="#e0e7ff" opacity="0.71"/><circle cx="757" cy="35" r="4.6" fill="#e0e7ff" opacity="0.76"/><circle cx="788" cy="59" r="3.3" fill="#e0e7ff" opacity="0.77"/><circle cx="297" cy="199" r="7.4" fill="#e0e7ff" opacity="0.87"/><circle cx="270" cy="195" r="8.1" fill="#fef9c3" opacity="0.81"/><circle cx="39" cy="105" r="5.5" fill="#e0e7ff" opacity="0.80"/><circle cx="11" cy="211" r="9.3" fill="#e0e7ff" opacity="0.81"/><circle cx="472" cy="117" r="7.8" fill="#e0e7ff" opacity="0.73"/><circle cx="660" cy="100" r="46" fill="#fef9c3"/><rect x="30" y="259" width="110" height="241" rx="8" fill="#312e81"/><path d="M18 259 L85 199 L152 259 Z" fill="#f472b6"/><rect x="50" y="289" width="28" height="28" rx="4" fill="#fde68a"/><rect x="92" y="289" width="28" height="28" rx="4" fill="#fde68a"/><rect x="180" y="235" width="110" height="265" rx="8" fill="#312e81"/><path d="M168 235 L235 175 L302 235 Z" fill="#f472b6"/><rect x="200" y="265" width="28" height="28" rx="4" fill="#fde68a"/><rect x="242" y="265" width="28" height="28" rx="4" fill="#fde68a"/><rect x="330" y="256" width="110" height="244" rx="8" fill="#312e81"/><path d="M318 256 L385 196 L452 256 Z" fill="#f472b6"/><rect x="350" y="286" width="28" height="28" rx="4" fill="#fde68a"/><rect x="392" y="286" width="28" height="28" rx="4" fill="#fde68a"/><rect x="480" y="253" width="110" height="247" rx="8" fill="#312e81"/><path d="M468 253 L535 193 L602 253 Z" fill="#f472b6"/><rect x="500" y="283" width="28" height="28" rx="4" fill="#fde68a"/><rect x="542" y="283" width="28" height="28" rx="4" fill="#fde68a"/><rect x="630" y="246" width="110" height="254" rx="8" fill="#312e81"/><path d="M618 246 L685 186 L752 246 Z" fill="#f472b6"/><rect x="650" y="276" width="28" height="28" rx="4" fill="#fde68a"/><rect x="692" y="276" width="28" height="28" rx="4" fill="#fde68a"/><rect x="780" y="257" width="110" height="243" rx="8" fill="#312e81"/><path d="M768 257 L835 197 L902 257 Z" fill="#f472b6"/><rect x="800" y="287" width="28" height="28" rx="4" fill="#fde68a"/><rect x="842" y="287" width="28" height="28" rx="4" fill="#fde68a"/><rect x="0" y="470" width="800" height="30" fill="#1e1b4b"/></svg>
